#tb 0: 1/1000
0,          0,          0,        0,      816, b8bf711d9a1ce49180ed56407c8a4b0a
0,         33,         33,        0,      816, 0457929b06ce46aec63d66bd38586e3f
0,         66,         66,        0,      816, 3b5f417ee5a936797a6f0d138b8ed73b
0,        100,        100,        0,      816, 5d1a42aeecfd5c8513cb2df94c206c8b
0,        133,        133,        0,      816, a0ab2dddbc810a1667d779f6ed69d010
0,        166,        166,        0,      816, b150cd7c4ec83e6f9d948e99d7465350
0,        200,        200,        0,      816, ea39622ad21312bd8bcecdaf09aa18fb
0,        233,        233,        0,      816, 467a42e1226a01c8ba244f312f588bab
0,        266,        266,        0,      816, f2311e15228ffc7fd377b89c203d0fbf
0,        300,        300,        0,      816, 5df58b3ac0a7856796a46f27be7dcf4c
